# Generated by tools/GenerateFormalSwordAssets.java
mtllib formal_flying_sword.mtl
o slender_flying_sword
v 0.445750 0.247000 0.504000
v 0.500000 0.247000 0.522000
v 0.554250 0.247000 0.504000
v 0.554250 0.247000 0.496000
v 0.500000 0.247000 0.478000
v 0.445750 0.247000 0.496000
v 0.428700 0.292000 0.504000
v 0.500000 0.292000 0.526000
v 0.571300 0.292000 0.504000
v 0.571300 0.292000 0.496000
v 0.500000 0.292000 0.474000
v 0.428700 0.292000 0.496000
v 0.436450 1.570000 0.503500
v 0.500000 1.570000 0.524000
v 0.563550 1.570000 0.503500
v 0.563550 1.570000 0.496500
v 0.500000 1.570000 0.476000
v 0.436450 1.570000 0.496500
v 0.455050 1.700000 0.502500
v 0.500000 1.700000 0.518000
v 0.544950 1.700000 0.502500
v 0.544950 1.700000 0.497500
v 0.500000 1.700000 0.482000
v 0.455050 1.700000 0.497500
v 0.500000 0.247000 0.500000
v 0.500000 1.840000 0.500000
v 0.552000 -0.085000 0.500000
v 0.552000 -0.055000 0.500000
v 0.536770 -0.085000 0.532527
v 0.536770 -0.055000 0.532527
v 0.500000 -0.085000 0.546000
v 0.500000 -0.055000 0.546000
v 0.463230 -0.085000 0.532527
v 0.463230 -0.055000 0.532527
v 0.448000 -0.085000 0.500000
v 0.448000 -0.055000 0.500000
v 0.463230 -0.085000 0.467473
v 0.463230 -0.055000 0.467473
v 0.500000 -0.085000 0.454000
v 0.500000 -0.055000 0.454000
v 0.536770 -0.085000 0.467473
v 0.536770 -0.055000 0.467473
v 0.500000 -0.085000 0.500000
v 0.500000 -0.055000 0.500000
v 0.540000 -0.055000 0.500000
v 0.540000 0.165000 0.500000
v 0.528284 -0.055000 0.526163
v 0.528284 0.165000 0.526163
v 0.500000 -0.055000 0.537000
v 0.500000 0.165000 0.537000
v 0.471716 -0.055000 0.526163
v 0.471716 0.165000 0.526163
v 0.460000 -0.055000 0.500000
v 0.460000 0.165000 0.500000
v 0.471716 -0.055000 0.473837
v 0.471716 0.165000 0.473837
v 0.500000 -0.055000 0.463000
v 0.500000 0.165000 0.463000
v 0.528284 -0.055000 0.473837
v 0.528284 0.165000 0.473837
v 0.500000 -0.055000 0.500000
v 0.500000 0.165000 0.500000
v 0.561000 0.165000 0.500000
v 0.561000 0.218000 0.500000
v 0.543134 0.165000 0.536770
v 0.543134 0.218000 0.536770
v 0.500000 0.165000 0.552000
v 0.500000 0.218000 0.552000
v 0.456866 0.165000 0.536770
v 0.456866 0.218000 0.536770
v 0.439000 0.165000 0.500000
v 0.439000 0.218000 0.500000
v 0.456866 0.165000 0.463230
v 0.456866 0.218000 0.463230
v 0.500000 0.165000 0.448000
v 0.500000 0.218000 0.448000
v 0.543134 0.165000 0.463230
v 0.543134 0.218000 0.463230
v 0.500000 0.165000 0.500000
v 0.500000 0.218000 0.500000
v 0.558000 -0.115000 0.500000
v 0.558000 -0.082000 0.500000
v 0.541012 -0.115000 0.535355
v 0.541012 -0.082000 0.535355
v 0.500000 -0.115000 0.550000
v 0.500000 -0.082000 0.550000
v 0.458988 -0.115000 0.535355
v 0.458988 -0.082000 0.535355
v 0.442000 -0.115000 0.500000
v 0.442000 -0.082000 0.500000
v 0.458988 -0.115000 0.464645
v 0.458988 -0.082000 0.464645
v 0.500000 -0.115000 0.450000
v 0.500000 -0.082000 0.450000
v 0.541012 -0.115000 0.464645
v 0.541012 -0.082000 0.464645
v 0.500000 -0.115000 0.500000
v 0.500000 -0.082000 0.500000
v 0.500000 -0.104000 0.500000
v 0.500000 -0.212000 0.500000
v 0.442000 -0.158000 0.500000
v 0.558000 -0.158000 0.500000
v 0.500000 -0.158000 0.546000
v 0.500000 -0.158000 0.454000
v 0.500000 -0.133000 0.548000
v 0.500000 -0.183000 0.548000
v 0.476000 -0.158000 0.548000
v 0.524000 -0.158000 0.548000
v 0.500000 -0.158000 0.558000
v 0.500000 -0.158000 0.538000
v 0.493301 0.194878 0.537500
v 0.403301 0.218878 0.537500
v 0.416699 0.269122 0.537500
v 0.506699 0.245122 0.537500
v 0.493301 0.194878 0.462500
v 0.403301 0.218878 0.462500
v 0.416699 0.269122 0.462500
v 0.506699 0.245122 0.462500
v 0.416009 0.219733 0.533000
v 0.311009 0.193733 0.533000
v 0.298991 0.242267 0.533000
v 0.403991 0.268267 0.533000
v 0.416009 0.219733 0.467000
v 0.311009 0.193733 0.467000
v 0.298991 0.242267 0.467000
v 0.403991 0.268267 0.467000
v 0.493301 0.245122 0.537500
v 0.583301 0.269122 0.537500
v 0.596699 0.218878 0.537500
v 0.506699 0.194878 0.537500
v 0.493301 0.245122 0.462500
v 0.583301 0.269122 0.462500
v 0.596699 0.218878 0.462500
v 0.506699 0.194878 0.462500
v 0.596009 0.268267 0.533000
v 0.701009 0.242267 0.533000
v 0.688991 0.193733 0.533000
v 0.583991 0.219733 0.533000
v 0.596009 0.268267 0.467000
v 0.701009 0.242267 0.467000
v 0.688991 0.193733 0.467000
v 0.583991 0.219733 0.467000
v 0.500000 0.299000 0.500000
v 0.500000 0.177000 0.500000
v 0.430000 0.238000 0.500000
v 0.570000 0.238000 0.500000
v 0.500000 0.238000 0.560000
v 0.500000 0.238000 0.440000
v 0.500000 0.275000 0.563000
v 0.500000 0.213000 0.563000
v 0.473000 0.244000 0.563000
v 0.527000 0.244000 0.563000
v 0.500000 0.244000 0.575000
v 0.500000 0.244000 0.551000
usemtl blade_dark
f 1 2 8 7
usemtl blade_light
f 2 3 9 8
usemtl edge
f 3 4 10 9
usemtl blade_dark
f 4 5 11 10
usemtl blade_light
f 5 6 12 11
usemtl edge
f 6 1 7 12
usemtl blade_dark
f 7 8 14 13
usemtl blade_light
f 8 9 15 14
usemtl edge
f 9 10 16 15
usemtl blade_dark
f 10 11 17 16
usemtl blade_light
f 11 12 18 17
usemtl edge
f 12 7 13 18
usemtl blade_dark
f 13 14 20 19
usemtl blade_light
f 14 15 21 20
usemtl edge
f 15 16 22 21
usemtl blade_dark
f 16 17 23 22
usemtl blade_light
f 17 18 24 23
usemtl edge
f 18 13 19 24
usemtl blade_dark
f 25 2 1
usemtl blade_light
f 25 3 2
usemtl edge
f 25 4 3
usemtl blade_dark
f 25 5 4
usemtl blade_light
f 25 6 5
usemtl edge
f 25 1 6
usemtl blade_dark
f 19 20 26
usemtl blade_light
f 20 21 26
usemtl edge
f 21 22 26
usemtl blade_dark
f 22 23 26
usemtl blade_light
f 23 24 26
usemtl edge
f 24 19 26
usemtl guard
f 27 29 30 28
f 29 31 32 30
f 31 33 34 32
f 33 35 36 34
f 35 37 38 36
f 37 39 40 38
f 39 41 42 40
f 41 27 28 42
f 43 27 29
f 44 30 28
f 43 29 31
f 44 32 30
f 43 31 33
f 44 34 32
f 43 33 35
f 44 36 34
f 43 35 37
f 44 38 36
f 43 37 39
f 44 40 38
f 43 39 41
f 44 42 40
f 43 41 27
f 44 28 42
usemtl grip
f 45 47 48 46
f 47 49 50 48
f 49 51 52 50
f 51 53 54 52
f 53 55 56 54
f 55 57 58 56
f 57 59 60 58
f 59 45 46 60
f 61 45 47
f 62 48 46
f 61 47 49
f 62 50 48
f 61 49 51
f 62 52 50
f 61 51 53
f 62 54 52
f 61 53 55
f 62 56 54
f 61 55 57
f 62 58 56
f 61 57 59
f 62 60 58
f 61 59 45
f 62 46 60
usemtl guard
f 63 65 66 64
f 65 67 68 66
f 67 69 70 68
f 69 71 72 70
f 71 73 74 72
f 73 75 76 74
f 75 77 78 76
f 77 63 64 78
f 79 63 65
f 80 66 64
f 79 65 67
f 80 68 66
f 79 67 69
f 80 70 68
f 79 69 71
f 80 72 70
f 79 71 73
f 80 74 72
f 79 73 75
f 80 76 74
f 79 75 77
f 80 78 76
f 79 77 63
f 80 64 78
f 81 83 84 82
f 83 85 86 84
f 85 87 88 86
f 87 89 90 88
f 89 91 92 90
f 91 93 94 92
f 93 95 96 94
f 95 81 82 96
f 97 81 83
f 98 84 82
f 97 83 85
f 98 86 84
f 97 85 87
f 98 88 86
f 97 87 89
f 98 90 88
f 97 89 91
f 98 92 90
f 97 91 93
f 98 94 92
f 97 93 95
f 98 96 94
f 97 95 81
f 98 82 96
f 99 101 103
f 99 103 102
f 99 102 104
f 99 104 101
f 100 103 101
f 100 102 103
f 100 104 102
f 100 101 104
usemtl accent
f 105 107 109
f 105 109 108
f 105 108 110
f 105 110 107
f 106 109 107
f 106 108 109
f 106 110 108
f 106 107 110
usemtl guard
f 111 112 113 114
f 118 117 116 115
f 111 115 116 112
f 112 116 117 113
f 113 117 118 114
f 114 118 115 111
f 119 120 121 122
f 126 125 124 123
f 119 123 124 120
f 120 124 125 121
f 121 125 126 122
f 122 126 123 119
f 127 128 129 130
f 134 133 132 131
f 127 131 132 128
f 128 132 133 129
f 129 133 134 130
f 130 134 131 127
f 135 136 137 138
f 142 141 140 139
f 135 139 140 136
f 136 140 141 137
f 137 141 142 138
f 138 142 139 135
f 143 145 147
f 143 147 146
f 143 146 148
f 143 148 145
f 144 147 145
f 144 146 147
f 144 148 146
f 144 145 148
usemtl accent
f 149 151 153
f 149 153 152
f 149 152 154
f 149 154 151
f 150 153 151
f 150 152 153
f 150 154 152
f 150 151 154
